<?xml version="1.0" encoding="UTF-8" standalone="no"?>
<svg
   width="77.5"
   height="77.5"
   data-name="Слой 1"
   version="1.1"
   id="svg1"
   sodipodi:docname="tmk-color.svg"
   inkscape:version="1.4.2 (f4327f4, 2025-05-13)"
   xmlns:inkscape="http://www.inkscape.org/namespaces/inkscape"
   xmlns:sodipodi="http://sodipodi.sourceforge.net/DTD/sodipodi-0.dtd"
   xmlns="http://www.w3.org/2000/svg"
   xmlns:svg="http://www.w3.org/2000/svg">
  <sodipodi:namedview
     id="namedview1"
     pagecolor="#ffffff"
     bordercolor="#000000"
     borderopacity="0.25"
     inkscape:showpageshadow="2"
     inkscape:pageopacity="0.0"
     inkscape:pagecheckerboard="0"
     inkscape:deskcolor="#d1d1d1"
     inkscape:zoom="2"
     inkscape:cx="112.25"
     inkscape:cy="74"
     inkscape:window-width="1280"
     inkscape:window-height="650"
     inkscape:window-x="-6"
     inkscape:window-y="-6"
     inkscape:window-maximized="1"
     inkscape:current-layer="svg1" />
  <defs
     id="defs1">
    <style
       id="style1">.cls-1{fill:#d3d4d3;}.cls-2{fill:#fff;}.cls-3{fill:#040f11;}.cls-4{fill:#ee732c;}</style>
  </defs>
  <g
     class="layer"
     id="g1"
     transform="translate(-5.42,-5.4200001)">
    <title
       id="title1">Layer 1</title>
    <path
       class="cls-4"
       d="M 5.42,18 C 22.7,15.65 43.3,18.87 56.59,32.05 69.88,45.23 73.11,65.75 70.72,82.88 70.93,66.33 62.11,51.59 49.6,39.2 37.09,26.81 22.11,17.83 5.42,18"
       id="svg_4" />
    <polygon
       class="cls-4"
       id="svg_5"
       points="21.01,44.68 21.01,56.93 15.6,56.93 15.6,44.68 10.83,44.68 10.83,39.54 25.77,39.54 25.77,44.68 " />
    <polygon
       class="cls-4"
       id="svg_6"
       points="32.85,59.07 32.95,59.07 34.7,49.56 42.69,49.56 42.69,66.95 37.85,66.95 37.85,53.29 37.72,53.29 34.94,66.95 30.44,66.95 27.74,53.29 27.59,53.29 27.59,66.95 23,66.95 23,49.56 31.01,49.56 " />
    <polygon
       class="cls-4"
       id="svg_7"
       points="60.24,76.97 53.79,76.97 50.32,69.6 50.23,69.6 50.23,76.97 44.82,76.97 44.82,59.59 50.23,59.59 50.23,66.42 50.32,66.42 53.65,59.59 59.79,59.59 55.03,67.74 " />
  </g>
</svg>
