<svg id="Слой_1" data-name="Слой 1" xmlns="http://www.w3.org/2000/svg" viewBox="0 0 88.34 119.11"><defs><style>.cls-1{fill:#ee732d;}.cls-2{fill:#fff;}</style></defs><polygon class="cls-1" points="0 0 0 119.11 88.34 119.11 88.34 119.11 88.34 0 0 0"/><rect class="cls-2" x="2.71" y="2.71" width="82.92" height="113.69"/><rect class="cls-1" x="5.42" y="5.42" width="77.5" height="77.5"/><path class="cls-2" d="M5.42,18c17.28-2.35,37.88.87,51.17,14.05s16.52,33.7,14.13,50.83c.21-16.55-8.61-31.29-21.12-43.68S22.11,17.83,5.42,18" transform="translate(0)"/><polygon class="cls-2" points="25.77 39.54 25.77 44.68 21.01 44.68 21.01 56.93 15.6 56.93 15.6 44.68 10.83 44.68 10.83 39.54 25.77 39.54"/><polygon class="cls-2" points="23 49.56 31.01 49.56 32.85 59.07 32.95 59.07 34.7 49.56 42.69 49.56 42.69 66.95 37.85 66.95 37.85 53.29 37.72 53.29 34.94 66.95 30.44 66.95 27.74 53.29 27.59 53.29 27.59 66.95 23 66.95 23 49.56"/><polygon class="cls-2" points="50.23 66.42 50.32 66.42 53.65 59.59 59.79 59.59 55.03 67.74 60.24 76.97 53.79 76.97 50.32 69.6 50.23 69.6 50.23 76.97 44.82 76.97 44.82 59.59 50.23 59.59 50.23 66.42"/><path class="cls-1" d="M11,94.07v9.72H8.81V94.07H5.42V92.18h9v1.89Z" transform="translate(0)"/><path class="cls-1" d="M19.21,101.22h1.93v.29a2,2,0,0,1-1.05,2,6.41,6.41,0,0,1-2.73.43,3.81,3.81,0,0,1-2.9-.91,5,5,0,0,1-.82-3.27,4.9,4.9,0,0,1,.84-3.25,3.71,3.71,0,0,1,2.9-1,3.79,3.79,0,0,1,2.91.93,4.47,4.47,0,0,1,.85,3.07v.54H15.62a3.6,3.6,0,0,0,.35,2,1.69,1.69,0,0,0,1.41.47,3.18,3.18,0,0,0,1.41-.23,1,1,0,0,0,.42-.9Zm0-2.34a2.16,2.16,0,0,0-.4-1.5A1.93,1.93,0,0,0,17.39,97a1.85,1.85,0,0,0-1.39.42,2.28,2.28,0,0,0-.38,1.5Z" transform="translate(0)"/><path class="cls-1" d="M21.77,95.68H24l1.42,2.6,1.41-2.6H29l-2.34,3.84,2.62,4.27H27l-1.64-3-1.6,3H21.45l2.67-4.27Z" transform="translate(0)"/><path class="cls-1" d="M37.67,99.64h2.17v.68a3.29,3.29,0,0,1-1.06,2.8,6.35,6.35,0,0,1-3.72.81c-1.91,0-3.2-.41-3.87-1.24s-1-2.46-1-4.91c0-2.08.31-3.53.95-4.35s2-1.36,3.84-1.36,3.1.33,3.83,1a3.92,3.92,0,0,1,1,3H37.62a2.12,2.12,0,0,0-.53-1.72A3.8,3.8,0,0,0,35,94c-1.06,0-1.75.25-2.06.74a7.32,7.32,0,0,0-.48,3.35,6.6,6.6,0,0,0,.51,3.23A2.34,2.34,0,0,0,35,102a4.3,4.3,0,0,0,2.08-.35,1.43,1.43,0,0,0,.56-1.32Z" transform="translate(0)"/><path class="cls-1" d="M46.44,101.22h1.93v.29a2,2,0,0,1-1,2,6.48,6.48,0,0,1-2.73.43,3.8,3.8,0,0,1-2.9-.91,6.85,6.85,0,0,1,0-6.52,3.74,3.74,0,0,1,2.9-1,3.83,3.83,0,0,1,2.92.93,4.47,4.47,0,0,1,.85,3.07v.54H42.85a3.73,3.73,0,0,0,.34,2,1.69,1.69,0,0,0,1.41.47,3.26,3.26,0,0,0,1.42-.23,1,1,0,0,0,.42-.9Zm0-2.34a2.16,2.16,0,0,0-.4-1.5A1.93,1.93,0,0,0,44.62,97a1.85,1.85,0,0,0-1.39.42,2.22,2.22,0,0,0-.38,1.5Z" transform="translate(0)"/><path class="cls-1" d="M51.55,95.68v1.14a2.8,2.8,0,0,1,1-1,3,3,0,0,1,1.4-.27,2.89,2.89,0,0,1,2.63,1.09,5.81,5.81,0,0,1,.59,3,6.79,6.79,0,0,1-.48,3,2.69,2.69,0,0,1-2.62,1.27,3.32,3.32,0,0,1-1.74-.36,2.06,2.06,0,0,1-.78-.9v4.6H49.62V95.68Zm1.83,1.38a1.7,1.7,0,0,0-1.43.48,4,4,0,0,0-.4,2.18,4.17,4.17,0,0,0,.38,2.17,1.68,1.68,0,0,0,1.45.54,1.76,1.76,0,0,0,1.48-.53,6.28,6.28,0,0,0,0-4.33A1.79,1.79,0,0,0,53.38,97.06Z" transform="translate(0)"/><path class="cls-1" d="M58.5,103.79V95.68H63a2.88,2.88,0,0,1,1.95.53,2.15,2.15,0,0,1,.59,1.68A1.57,1.57,0,0,1,65.15,99a1.93,1.93,0,0,1-1.08.61,2.23,2.23,0,0,1,1.19.63,2,2,0,0,1,.46,1.35,2.25,2.25,0,0,1-.55,1.71,2.8,2.8,0,0,1-2,.52Zm1.93-6.7V99h1.83a2,2,0,0,0,1.05-.19.77.77,0,0,0,.3-.7,1,1,0,0,0-.27-.76,1.3,1.3,0,0,0-.89-.23Zm0,3.22v2.07h2.11c.83,0,1.25-.35,1.25-1a.92.92,0,0,0-.31-.79,1.34,1.34,0,0,0-.85-.24Z" transform="translate(0)"/><path class="cls-1" d="M66.87,95.68h1.84v4.72a7.49,7.49,0,0,1-.25,1.78l3.38-6.5H74.2v8.11H72.36V99.07a8,8,0,0,1,.25-1.78l-3.38,6.5H66.87Z" transform="translate(0)"/><path class="cls-1" d="M81,100.72h1.88a3.25,3.25,0,0,1-.8,2.49,4.26,4.26,0,0,1-2.84.72,3.77,3.77,0,0,1-2.91-.91,5,5,0,0,1-.81-3.27,5.08,5.08,0,0,1,.8-3.29,3.78,3.78,0,0,1,2.92-.91,4.94,4.94,0,0,1,2.5.51,2.33,2.33,0,0,1,1.06,2.17v.3H81v-.11a1.33,1.33,0,0,0-.35-1.1,2.31,2.31,0,0,0-1.33-.26,1.5,1.5,0,0,0-1.38.56,4.36,4.36,0,0,0-.36,2.13,4.26,4.26,0,0,0,.36,2.11,1.51,1.51,0,0,0,1.38.57,2.08,2.08,0,0,0,1.43-.35A2,2,0,0,0,81,100.72Z" transform="translate(0)"/></svg>